<svg xmlns="http://www.w3.org/2000/svg" viewBox="0 0 160 120" width="160" height="120">
  <rect x="35" y="42" width="72" height="58" rx="5" fill="#0875e1" stroke="#073c82" stroke-width="3"/>
  <path d="M35 66H107" fill="none" stroke="#073c82" stroke-width="3"/>
  <path d="M107 49H122Q127 49 127 54V65Q127 70 122 70H107Z" fill="#0875e1" stroke="#073c82" stroke-width="3"/>
  <circle cx="118" cy="59.5" r="4.5" fill="white" stroke="#073c82" stroke-width="2.5"/>
  <path d="M52 42V34Q52 24 63 24H76Q87 24 87 34V42Z" fill="#0875e1" stroke="#073c82" stroke-width="3"/>
  <circle cx="69.5" cy="32" r="12" fill="#0875e1" stroke="#073c82" stroke-width="3"/>
  <path d="M69.5 27H112Q117 27 117 32Q117 37 112 37H69.5Z" fill="#f5f5f5" stroke="#333333" stroke-width="2.5"/>
  <circle cx="69.5" cy="32" r="7" fill="#eeeeee" stroke="#555555" stroke-width="2"/>
  <circle cx="88" cy="32" r="2.5" fill="white" stroke="#777" stroke-width="1.5"/>
  <circle cx="99" cy="32" r="2.5" fill="white" stroke="#777" stroke-width="1.5"/>
  <circle cx="110" cy="32" r="2.5" fill="white" stroke="#777" stroke-width="1.5"/>
  <rect x="106" y="77" width="5" height="13" rx="1" fill="#333"/>
  <path d="M111 80C118 80 119 76 126 76H149" fill="none" stroke="#8b4513" stroke-width="3" stroke-linecap="round"/>
  <path d="M111 84C118 84 119 81 126 81H149" fill="none" stroke="#e31b23" stroke-width="3" stroke-linecap="round"/>
  <path d="M111 88C118 88 119 86 126 86H149" fill="none" stroke="#ff8c00" stroke-width="3" stroke-linecap="round"/>
</svg>
